<svg width="30" height="38" viewBox="0 0 30 38" fill="none" xmlns="http://www.w3.org/2000/svg">
<path d="M10.0502 16.754C10.0502 17.3346 10.1495 17.8998 10.3481 18.4498C10.5467 18.9998 10.8293 19.504 11.196 19.9623C11.2571 19.5957 11.3793 19.2366 11.5627 18.8853C11.746 18.5339 11.9752 18.2359 12.2502 17.9915L15.0002 15.3332L17.7043 18.0373C17.9793 18.2818 18.2085 18.5721 18.3918 18.9082C18.5752 19.2443 18.6974 19.5957 18.7585 19.9623C19.0946 19.504 19.3925 19.0151 19.6522 18.4957C19.912 17.9762 20.0418 17.4262 20.0418 16.8457C20.0418 16.2651 19.9502 15.7075 19.7668 15.1728C19.5835 14.638 19.3085 14.1415 18.9418 13.6832C18.6057 13.8359 18.262 13.9582 17.9106 14.0498C17.5592 14.1415 17.2002 14.1873 16.8335 14.1873C15.9168 14.1873 15.0765 13.9276 14.3127 13.4082C13.5488 12.8887 12.9682 12.2012 12.571 11.3457C12.2043 11.7123 11.8682 12.1019 11.5627 12.5144C11.2571 12.9269 10.9897 13.3623 10.7606 13.8207C10.5314 14.279 10.3557 14.7526 10.2335 15.2415C10.1113 15.7304 10.0502 16.2346 10.0502 16.754ZM15.0002 19.1832L14.221 19.9623C14.0988 20.0846 14.0147 20.2068 13.9689 20.329C13.9231 20.4512 13.9002 20.5887 13.9002 20.7415C13.9002 21.0471 14.0071 21.2915 14.221 21.4748C14.4349 21.6582 14.6946 21.7498 15.0002 21.7498C15.3057 21.7498 15.5654 21.6582 15.7793 21.4748C15.9932 21.2915 16.1002 21.0471 16.1002 20.7415C16.1002 20.5887 16.0772 20.4512 16.0314 20.329C15.9856 20.2068 15.9015 20.0846 15.7793 19.9623L15.0002 19.1832ZM15.0002 6.1665V9.64984C15.0002 10.1693 15.1835 10.6047 15.5502 10.9561C15.9168 11.3075 16.3599 11.4832 16.8793 11.4832C17.2154 11.4832 17.521 11.3839 17.796 11.1853C18.071 10.9866 18.3154 10.7498 18.5293 10.4748L18.8502 10.0165C20.1029 10.7193 21.0731 11.6741 21.7606 12.8811C22.4481 14.088 22.7918 15.4096 22.7918 16.8457C22.7918 18.9846 22.0279 20.795 20.5002 22.2769C18.9724 23.7589 17.139 24.4998 15.0002 24.4998C12.8613 24.4998 11.0432 23.7512 9.54599 22.254C8.04877 20.7568 7.30016 18.9387 7.30016 16.7998C7.30016 14.4471 8.04877 12.354 9.54599 10.5207C11.0432 8.68734 12.8613 7.23595 15.0002 6.1665ZM4.00016 37.3332C2.99183 37.3332 2.12863 36.9741 1.41058 36.2561C0.692524 35.538 0.333496 34.6748 0.333496 33.6665V7.99984C0.333496 5.98317 1.05155 4.25678 2.48766 2.82067C3.92377 1.38456 5.65016 0.666504 7.66683 0.666504H22.3335C24.3502 0.666504 26.0765 1.38456 27.5127 2.82067C28.9488 4.25678 29.6668 5.98317 29.6668 7.99984V33.6665C29.6668 34.6748 29.3078 35.538 28.5897 36.2561C27.8717 36.9741 27.0085 37.3332 26.0002 37.3332H4.00016ZM4.00016 29.9998V33.6665H26.0002V29.9998C25.0835 29.9998 24.3502 30.3054 23.8002 30.9165C23.2502 31.5276 22.1502 31.8332 20.5002 31.8332C18.8502 31.8332 17.7731 31.5276 17.2689 30.9165C16.7647 30.3054 16.0085 29.9998 15.0002 29.9998C13.9918 29.9998 13.2356 30.3054 12.7314 30.9165C12.2272 31.5276 11.1502 31.8332 9.50016 31.8332C7.85016 31.8332 6.77308 31.5276 6.26891 30.9165C5.76475 30.3054 5.0085 29.9998 4.00016 29.9998ZM9.50016 28.1665C10.5085 28.1665 11.2647 27.8609 11.7689 27.2498C12.2731 26.6387 13.3502 26.3332 15.0002 26.3332C16.6502 26.3332 17.7502 26.6387 18.3002 27.2498C18.8502 27.8609 19.5835 28.1665 20.5002 28.1665C21.4168 28.1665 22.1502 27.8609 22.7002 27.2498C23.2502 26.6387 24.3502 26.3332 26.0002 26.3332V7.99984C26.0002 6.9915 25.6411 6.12831 24.9231 5.41025C24.205 4.6922 23.3418 4.33317 22.3335 4.33317H7.66683C6.6585 4.33317 5.7953 4.6922 5.07725 5.41025C4.35919 6.12831 4.00016 6.9915 4.00016 7.99984V26.3332C5.65016 26.3332 6.72725 26.6387 7.23141 27.2498C7.73558 27.8609 8.49183 28.1665 9.50016 28.1665Z" fill="#014BAC"/>
</svg>
