<svg width="26" height="26" viewBox="0 0 26 26" fill="none" xmlns="http://www.w3.org/2000/svg">
<g id="facebook-2020-2-1 1">
<g id="Group 35829">
<path id="Vector" fill-rule="evenodd" clip-rule="evenodd" d="M13.0003 2.16602C18.9834 2.16602 23.8337 7.01627 23.8337 12.9993C23.8337 18.9824 18.9834 23.8327 13.0003 23.8327C7.01725 23.8327 2.16699 18.9824 2.16699 12.9993C2.16699 7.01627 7.01725 2.16602 13.0003 2.16602Z" fill="url(#paint0_linear_286_677)"/>
<path id="Vector_2" d="M14.4074 23.7384V15.3705H16.7664L17.0791 12.4255H14.4074L14.4114 10.9513C14.4114 10.1832 14.4843 9.77176 15.5877 9.77176H17.0626V6.82617H14.703C11.8687 6.82617 10.8713 8.25479 10.8713 10.6576V12.4257H9.10449V15.371H10.8713V23.6198C11.5596 23.7569 12.2712 23.8293 12.9998 23.8293C13.4704 23.8294 13.9406 23.799 14.4074 23.7384Z" fill="white"/>
</g>
</g>
<defs>
<linearGradient id="paint0_linear_286_677" x1="13.0003" y1="1.96862" x2="13.0003" y2="24.7566" gradientUnits="userSpaceOnUse">
<stop stop-color="#00B2FF"/>
<stop offset="1" stop-color="#006AFF"/>
</linearGradient>
</defs>
</svg>
