<svg width="26" height="26" viewBox="0 0 26 26" fill="none" xmlns="http://www.w3.org/2000/svg">
<g id="Instagram">
<g id="Vector">
<path d="M7.66109 23.7561C6.37257 23.6975 5.6726 23.483 5.20704 23.3014C4.59014 23.0612 4.15033 22.7753 3.68734 22.313C3.22434 21.8506 2.93779 21.4108 2.69889 20.7939C2.5173 20.3284 2.30286 19.6284 2.24427 18.3399C2.17987 16.947 2.16699 16.5291 2.16699 13.0003C2.16699 9.47152 2.18116 9.05425 2.24362 7.66012C2.30222 6.37159 2.51794 5.67292 2.69824 5.20606C2.93843 4.58916 3.22499 4.14935 3.68669 3.68572C4.14904 3.22337 4.58885 2.93617 5.20639 2.69727C5.67196 2.51568 6.37192 2.30124 7.66045 2.24264C9.05394 2.17889 9.4725 2.16602 13 2.16602C16.5288 2.16602 16.9461 2.18018 18.3402 2.24264C19.6287 2.30124 20.3274 2.51696 20.7943 2.69727C21.4112 2.93617 21.851 3.22337 22.314 3.68572C22.777 4.14806 23.0622 4.58852 23.3024 5.20542C23.484 5.67098 23.6984 6.37095 23.757 7.65947C23.8208 9.0536 23.8337 9.47088 23.8337 12.9997C23.8337 16.5272 23.8208 16.9457 23.757 18.3399C23.6984 19.6284 23.4827 20.3284 23.3024 20.7939C23.0622 21.4108 22.7763 21.8506 22.314 22.313C21.8516 22.7753 21.4112 23.0612 20.7943 23.3014C20.3287 23.483 19.6287 23.6975 18.3402 23.7561C16.9474 23.8198 16.5288 23.8327 13 23.8327C9.4725 23.8327 9.05394 23.8205 7.66109 23.7561Z" fill="url(#paint0_radial_286_681)"/>
<path d="M7.66109 23.7561C6.37257 23.6975 5.6726 23.483 5.20704 23.3014C4.59014 23.0612 4.15033 22.7753 3.68734 22.313C3.22434 21.8506 2.93779 21.4108 2.69889 20.7939C2.5173 20.3284 2.30286 19.6284 2.24427 18.3399C2.17987 16.947 2.16699 16.5291 2.16699 13.0003C2.16699 9.47152 2.18116 9.05425 2.24362 7.66012C2.30222 6.37159 2.51794 5.67292 2.69824 5.20606C2.93843 4.58916 3.22499 4.14935 3.68669 3.68572C4.14904 3.22337 4.58885 2.93617 5.20639 2.69727C5.67196 2.51568 6.37192 2.30124 7.66045 2.24264C9.05394 2.17889 9.4725 2.16602 13 2.16602C16.5288 2.16602 16.9461 2.18018 18.3402 2.24264C19.6287 2.30124 20.3274 2.51696 20.7943 2.69727C21.4112 2.93617 21.851 3.22337 22.314 3.68572C22.777 4.14806 23.0622 4.58852 23.3024 5.20542C23.484 5.67098 23.6984 6.37095 23.757 7.65947C23.8208 9.0536 23.8337 9.47088 23.8337 12.9997C23.8337 16.5272 23.8208 16.9457 23.757 18.3399C23.6984 19.6284 23.4827 20.3284 23.3024 20.7939C23.0622 21.4108 22.7763 21.8506 22.314 22.313C21.8516 22.7753 21.4112 23.0612 20.7943 23.3014C20.3287 23.483 19.6287 23.6975 18.3402 23.7561C16.9474 23.8198 16.5288 23.8327 13 23.8327C9.4725 23.8327 9.05394 23.8205 7.66109 23.7561Z" fill="url(#paint1_radial_286_681)"/>
<path d="M10.3402 13.0455C10.3402 11.5637 11.5411 10.3622 13.0229 10.3622C14.5046 10.3622 15.7062 11.5637 15.7062 13.0455C15.7062 14.5273 14.5046 15.7288 13.0229 15.7288C11.5411 15.7288 10.3402 14.5273 10.3402 13.0455ZM8.88967 13.0455C8.88967 15.3283 10.7401 17.1787 13.0229 17.1787C15.3056 17.1787 17.1561 15.3283 17.1561 13.0455C17.1561 10.7628 15.3056 8.91232 13.0229 8.91232C10.7401 8.91232 8.88967 10.7626 8.88967 13.0455ZM16.3538 8.74844C16.3538 8.93948 16.4103 9.12625 16.5164 9.28514C16.6225 9.44402 16.7733 9.56789 16.9498 9.64106C17.1262 9.71424 17.3204 9.73345 17.5078 9.69625C17.6952 9.65906 17.8673 9.56713 18.0025 9.4321C18.1376 9.29707 18.2297 9.125 18.267 8.93764C18.3044 8.75029 18.2853 8.55607 18.2123 8.37955C18.1392 8.20302 18.0155 8.05211 17.8567 7.94592C17.6979 7.83972 17.5112 7.78299 17.3201 7.78292C17.0641 7.78304 16.8181 7.88479 16.637 8.06582C16.4559 8.24685 16.3541 8.49237 16.3538 8.74844ZM9.77096 19.5975C8.98619 19.5617 8.55965 19.431 8.27619 19.3206C7.90038 19.1743 7.63224 19 7.35033 18.7185C7.06841 18.437 6.8939 18.1691 6.74824 17.7933C6.63774 17.51 6.50702 17.0833 6.47135 16.2985C6.43233 15.4501 6.42453 15.1952 6.42453 13.0456C6.42453 10.8961 6.43297 10.6419 6.47135 9.79278C6.50709 9.00801 6.63877 8.58217 6.74824 8.298C6.89455 7.9222 7.0688 7.65406 7.35033 7.37215C7.63186 7.09023 7.89974 6.91572 8.27619 6.77006C8.55952 6.65956 8.98619 6.52884 9.77096 6.49317C10.6194 6.45414 10.8743 6.44635 13.0229 6.44635C15.1714 6.44635 15.4266 6.45466 16.2757 6.4933C17.0605 6.52903 17.4863 6.66072 17.7705 6.77019C18.1463 6.91585 18.4144 7.09074 18.6964 7.37227C18.9783 7.65381 19.1521 7.92233 19.2985 8.29813C19.409 8.58147 19.5397 9.00814 19.5753 9.79291C19.6144 10.6421 19.6222 10.8962 19.6222 13.0458C19.6222 15.1953 19.6144 15.4495 19.5753 16.2986C19.5396 17.0834 19.4082 17.51 19.2985 17.7934C19.1521 18.1692 18.9779 18.4374 18.6964 18.7186C18.4148 18.9999 18.1463 19.1744 17.7705 19.3207C17.4872 19.4312 17.0605 19.5619 16.2757 19.5976C15.4273 19.6366 15.1724 19.6444 13.0229 19.6444C10.8733 19.6444 10.6192 19.6365 9.77096 19.5975ZM9.70432 5.04501C8.84743 5.08403 8.26189 5.2199 7.75054 5.41888C7.22128 5.62436 6.77265 5.90003 6.32466 6.34731C5.87667 6.7946 5.60171 7.24329 5.39623 7.77319C5.19725 8.28487 5.06138 8.87008 5.02235 9.72697C4.98269 10.5852 4.97361 10.8596 4.97361 13.0455C4.97361 15.2314 4.98269 15.5058 5.02235 16.3641C5.06138 17.221 5.19725 17.8062 5.39623 18.3178C5.60171 18.8471 5.87673 19.2966 6.32466 19.7437C6.77258 20.1908 7.22064 20.4661 7.75054 20.6722C8.26286 20.8711 8.84743 21.007 9.70432 21.046C10.563 21.0851 10.8369 21.0948 13.0229 21.0948C15.2088 21.0948 15.4832 21.0857 16.3414 21.046C17.1984 21.007 17.7835 20.8711 18.2952 20.6722C18.8244 20.4661 19.2731 20.191 19.7211 19.7437C20.1691 19.2964 20.4434 18.8471 20.6495 18.3178C20.8485 17.8062 20.985 17.221 21.0234 16.3641C21.0624 15.5052 21.0715 15.2314 21.0715 13.0455C21.0715 10.8596 21.0624 10.5852 21.0234 9.72697C20.9844 8.87002 20.8485 8.28455 20.6495 7.77319C20.4434 7.24394 20.1684 6.7953 19.7211 6.34731C19.2738 5.89933 18.8244 5.62436 18.2958 5.41888C17.7835 5.2199 17.1983 5.08339 16.3421 5.04501C15.4837 5.00579 15.2094 4.99626 13.0238 4.99626C10.8382 4.99626 10.563 5.00534 9.70432 5.04501Z" fill="white"/>
</g>
</g>
<defs>
<radialGradient id="paint0_radial_286_681" cx="0" cy="0" r="1" gradientUnits="userSpaceOnUse" gradientTransform="translate(3.56924 23.358) scale(27.5086)">
<stop offset="0.09" stop-color="#FA8F21"/>
<stop offset="0.78" stop-color="#D82D7E"/>
</radialGradient>
<radialGradient id="paint1_radial_286_681" cx="0" cy="0" r="1" gradientUnits="userSpaceOnUse" gradientTransform="translate(17.1747 22.6623) scale(24.2079)">
<stop offset="0.64" stop-color="#8C3AAA" stop-opacity="0"/>
<stop offset="1" stop-color="#8C3AAA"/>
</radialGradient>
</defs>
</svg>
