<svg width="154" height="154" viewBox="0 0 154 154" fill="none" xmlns="http://www.w3.org/2000/svg">
<g filter="url(#filter0_d_198_619)">
<path d="M77 96C94.1208 96 108 82.1208 108 65C108 47.8792 94.1208 34 77 34C59.8792 34 46 47.8792 46 65C46 82.1208 59.8792 96 77 96Z" fill="white"/>
</g>
<path d="M89.414 48.64H71.4651V47.8C71.4651 47.36 71.1093 47 70.6744 47H65.9698C65.5349 47 65.1791 47.36 65.1791 47.8V48.64H64.586C62.0558 48.64 60 50.68 60 53.24V78.36C60 80.92 62.0558 83 64.586 83H89.414C91.9442 83 94 80.92 94 78.36V53.24C94 50.68 91.9442 48.64 89.414 48.64ZM77 80.92C68.7372 80.92 62.0558 74.16 62.0558 65.8C62.0558 57.44 68.7372 50.68 77 50.68C85.2628 50.68 91.9442 57.44 91.9442 65.8C91.9442 74.16 85.2628 80.92 77 80.92Z" fill="#014BAC"/>
<path d="M88.9018 62.2005C88.467 60.9205 87.8739 59.7205 87.1228 58.6805C86.846 58.2805 86.2925 58.1605 85.8577 58.4405L80.5995 61.6805C79.7693 61.0005 78.7809 60.5605 77.6344 60.4405L80.6786 55.3205C80.9949 54.7605 80.7181 54.0405 80.0856 53.8805C79.0972 53.6405 78.0693 53.4805 77.0414 53.4805C75.6972 53.4805 74.3925 53.6805 73.2065 54.0805C72.7321 54.2405 72.4553 54.7205 72.5739 55.2405L73.9972 61.3205C73.0879 61.9205 72.3763 62.7605 71.9018 63.7605L68.0274 59.2405C67.5925 58.7605 66.8414 58.8405 66.4856 59.3605C65.9321 60.2405 65.4972 61.1605 65.1809 62.2005C64.746 63.4805 64.5879 64.8005 64.5879 66.0805C64.5879 66.6005 64.9832 67.0005 65.4577 67.0405L71.5856 67.5605C71.8623 68.6405 72.4553 69.6005 73.246 70.3205L67.7902 72.6805C67.1972 72.9205 67.0391 73.6805 67.4344 74.2005C68.067 75.0005 68.8181 75.6805 69.6879 76.3205C70.7949 77.1205 71.9414 77.7205 73.167 78.1205C73.6414 78.2805 74.1553 78.0405 74.353 77.5605L76.7251 71.8005C76.8437 71.8005 76.9228 71.8005 77.0414 71.8005C78.0693 71.8005 79.0181 71.5205 79.8484 71.0405L80.3623 77.0005C80.4018 77.6405 81.0739 78.0405 81.667 77.8005C82.6158 77.4005 83.5251 76.9205 84.3553 76.2805C85.4623 75.4805 86.3716 74.5205 87.1228 73.4805C87.3995 73.0805 87.36 72.5205 86.9646 72.2005L82.2995 68.1605C82.5367 67.5205 82.6949 66.8405 82.6949 66.0805C82.6949 65.6805 82.6553 65.2805 82.5763 64.9205L88.3484 66.2405C88.9809 66.4005 89.5739 65.8805 89.4949 65.2005C89.4158 64.2405 89.2181 63.2005 88.9018 62.2005ZM77.0018 68.0805C75.7763 68.0805 74.7879 67.0805 74.7879 65.8405C74.7879 64.6005 75.7763 63.6005 77.0018 63.6005C78.2274 63.6005 79.2158 64.6005 79.2158 65.8405C79.2158 67.0405 78.2274 68.0805 77.0018 68.0805Z" fill="#014BAC"/>
<defs>
<filter id="filter0_d_198_619" x="0" y="0" width="154" height="154" filterUnits="userSpaceOnUse" color-interpolation-filters="sRGB">
<feFlood flood-opacity="0" result="BackgroundImageFix"/>
<feColorMatrix in="SourceAlpha" type="matrix" values="0 0 0 0 0 0 0 0 0 0 0 0 0 0 0 0 0 0 127 0" result="hardAlpha"/>
<feOffset dy="12"/>
<feGaussianBlur stdDeviation="23"/>
<feComposite in2="hardAlpha" operator="out"/>
<feColorMatrix type="matrix" values="0 0 0 0 0.00392157 0 0 0 0 0.294118 0 0 0 0 0.67451 0 0 0 0.19 0"/>
<feBlend mode="normal" in2="BackgroundImageFix" result="effect1_dropShadow_198_619"/>
<feBlend mode="normal" in="SourceGraphic" in2="effect1_dropShadow_198_619" result="shape"/>
</filter>
</defs>
</svg>
