<svg width="40" height="40" viewBox="0 0 40 40" fill="none" xmlns="http://www.w3.org/2000/svg">
<path d="M33.3201 13.7657C33.4162 13.7163 33.4643 13.6669 33.4643 13.6669L33.5123 13.6175C33.5123 13.6175 33.5604 13.6175 33.5604 13.5681L39.7117 7.29361C39.9039 7.09598 40 6.84896 40 6.60193C40 6.3549 39.9039 6.10788 39.7117 5.91026L34.954 1.01912C34.7618 0.821497 34.5215 0.722686 34.2812 0.722686C34.041 0.722686 33.8007 0.821497 33.6085 1.01912L27.4572 7.29361C27.4572 7.29361 27.4572 7.34301 27.4091 7.34301L27.3611 7.39242C27.313 7.44182 27.313 7.49123 27.265 7.54063C27.265 7.54063 27.265 7.54063 27.2169 7.59004L25.583 11.246L21.0176 16.0384L17.7017 12.58C18.9031 9.17101 18.0861 5.31739 15.5872 2.6989C12.9441 -0.0183958 8.8112 -0.759477 5.35111 0.821496C5.06277 0.969713 4.87055 1.21674 4.82249 1.56258C4.77443 1.85901 4.87055 2.20485 5.06277 2.45188L9.77233 7.29361L7.08116 10.1097L2.3716 5.26799C2.13132 5.02096 1.84298 4.92215 1.50658 4.97155C1.21824 5.02096 0.929898 5.21858 0.785728 5.51501C-0.752087 9.0722 0.0168202 13.2717 2.65994 16.0384C5.15889 18.6074 8.95537 19.4473 12.2713 18.2122L13.9052 19.892L3.33273 30.7118C1.26629 32.8362 1.26629 36.2946 3.33273 38.419C4.34192 39.4565 5.73557 40 7.08116 40C8.42674 40 9.77233 39.4565 10.8296 38.419L21.354 27.5992L31.542 38.0238C32.3109 38.8143 33.2721 39.1601 34.2812 39.1601C35.2424 39.1601 36.2516 38.7649 36.9724 38.0238C38.4622 36.4922 38.4622 33.9725 36.9724 32.441L25.1024 20.2378L29.7639 15.4949L33.3201 13.7657ZM34.2812 3.09415L37.6933 6.60193L32.9357 11.4931L29.5236 7.98528L34.2812 3.09415ZM7.56172 2.15544C9.62816 1.66139 11.8388 2.15544 13.5208 3.48939L11.166 5.91026L7.56172 2.15544ZM13.1844 16.3348C12.9921 16.1372 12.7518 16.0384 12.5116 16.0384C12.3674 16.0384 12.2713 16.0878 12.1271 16.1372C9.38788 17.4217 6.16808 16.7794 4.05358 14.655C2.27549 12.827 1.60269 10.2085 2.13132 7.78766L6.40836 12.2341C6.79282 12.6294 7.41755 12.6294 7.75395 12.2341L11.8388 8.03469L14.8663 4.92215C16.4522 7.04658 16.7886 9.9615 15.6833 12.4812C15.5391 12.8764 15.5872 13.3211 15.8755 13.5681L19.624 17.4711L16.8847 20.2872L13.1844 16.3348ZM9.48399 36.9863C8.18646 38.3202 6.02391 38.3202 4.72638 36.9863C3.42885 35.6523 3.42885 33.4291 4.72638 32.0951L5.39917 31.4035L10.1568 36.2946L9.48399 36.9863ZM11.5024 34.9112L6.74476 30.0201L15.2508 21.2753L20.0084 26.1665L11.5024 34.9112ZM35.6268 33.8243C36.3957 34.5654 36.3957 35.8499 35.6268 36.6404C34.8579 37.4309 33.6565 37.4309 32.8876 36.6404L22.0268 25.4748L21.0176 24.4373L23.7568 21.6212L35.6268 33.8243ZM19.672 23.0045L18.3264 21.6212L26.4961 13.2223L27.8417 14.6056L19.672 23.0045ZM27.6014 11.5919L28.4664 9.66507L31.2537 12.5306L29.3795 13.4199L27.6014 11.5919Z" fill="#014BAC"/>
</svg>
