<svg width="154" height="154" viewBox="0 0 154 154" fill="none" xmlns="http://www.w3.org/2000/svg">
<g filter="url(#filter0_d_198_578)">
<circle cx="77" cy="65" r="31" fill="white"/>
</g>
<path d="M91.8824 68.6H83.4706V69.9091C83.4706 77.139 77.6766 83 70.5294 83C63.3822 83 57.5882 77.139 57.5882 69.9091V54.2H56.2941C55.5794 54.2 55 53.6139 55 52.8909V48.3091C55 47.5861 55.5794 47 56.2941 47H69.2353C69.95 47 70.5294 47.5861 70.5294 48.3091V52.8909C70.5294 53.6139 69.95 54.2 69.2353 54.2H67.9412V68.6C67.9412 70.046 69.1 71.2182 70.5294 71.2182C71.9589 71.2182 73.1176 70.046 73.1176 68.6V65.9818C73.1176 61.6439 76.594 58.1273 80.8824 58.1273H91.8824V56.8182C91.8824 56.0952 92.4618 55.5091 93.1765 55.5091H97.7059C98.4206 55.5091 99 56.0952 99 56.8182V69.9091C99 70.6321 98.4206 71.2182 97.7059 71.2182H93.1765C92.4618 71.2182 91.8824 70.6321 91.8824 69.9091V68.6ZM73.9534 72.5273C73.0409 73.342 71.8422 73.8364 70.5294 73.8364C69.2166 73.8364 68.0179 73.342 67.1054 72.5273H60.5026C60.805 73.7156 61.3083 74.8222 61.9738 75.808C62.021 75.8027 62.069 75.8 62.1176 75.8H78.9412C78.9898 75.8 79.0378 75.8027 79.085 75.808C79.7505 74.8222 80.2538 73.7156 80.5562 72.5273H73.9534ZM75.5428 69.9091H80.8824V67.2909C80.8824 66.5679 81.4618 65.9818 82.1765 65.9818H91.8824V60.7455H80.8824C78.0235 60.7455 75.7059 63.0899 75.7059 65.9818V68.6C75.7059 69.052 75.6493 69.4907 75.5428 69.9091ZM65.516 69.9091C65.4095 69.4907 65.3529 69.052 65.3529 68.6V54.2H60.1765V69.9091H65.516ZM76.5661 78.4182H64.4927C66.1921 79.654 68.2767 80.3818 70.5294 80.3818C72.7821 80.3818 74.8668 79.654 76.5661 78.4182ZM57.5882 49.6182V51.5818H67.9412V49.6182H57.5882ZM94.4706 58.1273V68.6H96.4118V58.1273H94.4706Z" fill="#014BAC"/>
<defs>
<filter id="filter0_d_198_578" x="0" y="0" width="154" height="154" filterUnits="userSpaceOnUse" color-interpolation-filters="sRGB">
<feFlood flood-opacity="0" result="BackgroundImageFix"/>
<feColorMatrix in="SourceAlpha" type="matrix" values="0 0 0 0 0 0 0 0 0 0 0 0 0 0 0 0 0 0 127 0" result="hardAlpha"/>
<feOffset dy="12"/>
<feGaussianBlur stdDeviation="23"/>
<feComposite in2="hardAlpha" operator="out"/>
<feColorMatrix type="matrix" values="0 0 0 0 0.00392157 0 0 0 0 0.294118 0 0 0 0 0.67451 0 0 0 0.19 0"/>
<feBlend mode="normal" in2="BackgroundImageFix" result="effect1_dropShadow_198_578"/>
<feBlend mode="normal" in="SourceGraphic" in2="effect1_dropShadow_198_578" result="shape"/>
</filter>
</defs>
</svg>
