<svg width="44" height="36" viewBox="0 0 44 36" fill="none" xmlns="http://www.w3.org/2000/svg">
<path d="M36.8824 21.6H28.4706V22.9091C28.4706 30.139 22.6766 36 15.5294 36C8.3822 36 2.58824 30.139 2.58824 22.9091V7.2H1.29412C0.579397 7.2 0 6.6139 0 5.89091V1.30909C0 0.5861 0.579397 0 1.29412 0H14.2353C14.95 0 15.5294 0.5861 15.5294 1.30909V5.89091C15.5294 6.6139 14.95 7.2 14.2353 7.2H12.9412V21.6C12.9412 23.046 14.1 24.2182 15.5294 24.2182C16.9589 24.2182 18.1176 23.046 18.1176 21.6V18.9818C18.1176 14.6439 21.594 11.1273 25.8824 11.1273H36.8824V9.81818C36.8824 9.09519 37.4618 8.50909 38.1765 8.50909H42.7059C43.4206 8.50909 44 9.09519 44 9.81818V22.9091C44 23.6321 43.4206 24.2182 42.7059 24.2182H38.1765C37.4618 24.2182 36.8824 23.6321 36.8824 22.9091V21.6ZM18.9534 25.5273C18.0409 26.342 16.8422 26.8364 15.5294 26.8364C14.2166 26.8364 13.0179 26.342 12.1054 25.5273H5.50265C5.80499 26.7156 6.30833 27.8222 6.97381 28.808C7.02104 28.8027 7.06903 28.8 7.11765 28.8H23.9412C23.9898 28.8 24.0378 28.8027 24.085 28.808C24.7505 27.8222 25.2538 26.7156 25.5562 25.5273H18.9534ZM20.5428 22.9091H25.8824V20.2909C25.8824 19.5679 26.4618 18.9818 27.1765 18.9818H36.8824V13.7455H25.8824C23.0235 13.7455 20.7059 16.0899 20.7059 18.9818V21.6C20.7059 22.052 20.6493 22.4907 20.5428 22.9091ZM10.516 22.9091C10.4095 22.4907 10.3529 22.052 10.3529 21.6V7.2H5.17647V22.9091H10.516ZM21.5661 31.4182H9.4927C11.1921 32.654 13.2767 33.3818 15.5294 33.3818C17.7821 33.3818 19.8668 32.654 21.5661 31.4182ZM2.58824 2.61818V4.58182H12.9412V2.61818H2.58824ZM39.4706 11.1273V21.6H41.4118V11.1273H39.4706Z" fill="#014BAC"/>
</svg>
