<svg width="154" height="154" viewBox="0 0 154 154" fill="none" xmlns="http://www.w3.org/2000/svg">
<g filter="url(#filter0_d_198_593)">
<path d="M77 96C94.1208 96 108 82.1208 108 65C108 47.8792 94.1208 34 77 34C59.8792 34 46 47.8792 46 65C46 82.1208 59.8792 96 77 96Z" fill="white"/>
</g>
<path d="M90.3201 58.7657C90.4162 58.7163 90.4643 58.6669 90.4643 58.6669L90.5123 58.6175C90.5123 58.6175 90.5604 58.6175 90.5604 58.5681L96.7117 52.2936C96.9039 52.096 97 51.849 97 51.6019C97 51.3549 96.9039 51.1079 96.7117 50.9103L91.954 46.0191C91.7618 45.8215 91.5215 45.7227 91.2812 45.7227C91.041 45.7227 90.8007 45.8215 90.6085 46.0191L84.4572 52.2936C84.4572 52.2936 84.4572 52.343 84.4091 52.343L84.3611 52.3924C84.313 52.4418 84.313 52.4912 84.265 52.5406C84.265 52.5406 84.265 52.5406 84.2169 52.59L82.583 56.246L78.0176 61.0384L74.7017 57.58C75.9031 54.171 75.0861 50.3174 72.5872 47.6989C69.9441 44.9816 65.8112 44.2405 62.3511 45.8215C62.0628 45.9697 61.8705 46.2167 61.8225 46.5626C61.7744 46.859 61.8705 47.2048 62.0628 47.4519L66.7723 52.2936L64.0812 55.1097L59.3716 50.268C59.1313 50.021 58.843 49.9221 58.5066 49.9716C58.2182 50.021 57.9299 50.2186 57.7857 50.515C56.2479 54.0722 57.0168 58.2717 59.6599 61.0384C62.1589 63.6074 65.9554 64.4473 69.2713 63.2122L70.9052 64.892L60.3327 75.7118C58.2663 77.8362 58.2663 81.2946 60.3327 83.419C61.3419 84.4565 62.7356 85 64.0812 85C65.4267 85 66.7723 84.4565 67.8296 83.419L78.354 72.5992L88.542 83.0238C89.3109 83.8143 90.2721 84.1601 91.2812 84.1601C92.2424 84.1601 93.2516 83.7649 93.9724 83.0238C95.4622 81.4922 95.4622 78.9725 93.9724 77.441L82.1024 65.2378L86.7639 60.4949L90.3201 58.7657ZM91.2812 48.0941L94.6933 51.6019L89.9357 56.4931L86.5236 52.9853L91.2812 48.0941ZM64.5617 47.1554C66.6282 46.6614 68.8388 47.1554 70.5208 48.4894L68.166 50.9103L64.5617 47.1554ZM70.1844 61.3348C69.9921 61.1372 69.7518 61.0384 69.5116 61.0384C69.3674 61.0384 69.2713 61.0878 69.1271 61.1372C66.3879 62.4217 63.1681 61.7794 61.0536 59.655C59.2755 57.827 58.6027 55.2085 59.1313 52.7877L63.4084 57.2341C63.7928 57.6294 64.4176 57.6294 64.754 57.2341L68.8388 53.0347L71.8663 49.9221C73.4522 52.0466 73.7886 54.9615 72.6833 57.4812C72.5391 57.8764 72.5872 58.3211 72.8755 58.5681L76.624 62.4711L73.8847 65.2872L70.1844 61.3348ZM66.484 81.9863C65.1865 83.3202 63.0239 83.3202 61.7264 81.9863C60.4288 80.6523 60.4288 78.4291 61.7264 77.0951L62.3992 76.4035L67.1568 81.2946L66.484 81.9863ZM68.5024 79.9112L63.7448 75.0201L72.2508 66.2753L77.0084 71.1665L68.5024 79.9112ZM92.6268 78.8243C93.3957 79.5654 93.3957 80.8499 92.6268 81.6404C91.8579 82.4309 90.6565 82.4309 89.8876 81.6404L79.0268 70.4748L78.0176 69.4373L80.7568 66.6212L92.6268 78.8243ZM76.672 68.0045L75.3264 66.6212L83.4961 58.2223L84.8417 59.6056L76.672 68.0045ZM84.6014 56.5919L85.4664 54.6651L88.2537 57.5306L86.3795 58.4199L84.6014 56.5919Z" fill="#014BAC"/>
<defs>
<filter id="filter0_d_198_593" x="0" y="0" width="154" height="154" filterUnits="userSpaceOnUse" color-interpolation-filters="sRGB">
<feFlood flood-opacity="0" result="BackgroundImageFix"/>
<feColorMatrix in="SourceAlpha" type="matrix" values="0 0 0 0 0 0 0 0 0 0 0 0 0 0 0 0 0 0 127 0" result="hardAlpha"/>
<feOffset dy="12"/>
<feGaussianBlur stdDeviation="23"/>
<feComposite in2="hardAlpha" operator="out"/>
<feColorMatrix type="matrix" values="0 0 0 0 0.00392157 0 0 0 0 0.294118 0 0 0 0 0.67451 0 0 0 0.19 0"/>
<feBlend mode="normal" in2="BackgroundImageFix" result="effect1_dropShadow_198_593"/>
<feBlend mode="normal" in="SourceGraphic" in2="effect1_dropShadow_198_593" result="shape"/>
</filter>
</defs>
</svg>
