<svg width="44" height="44" viewBox="0 0 44 44" fill="none" xmlns="http://www.w3.org/2000/svg">
<path d="M22 33C25.0556 33 27.6528 31.9306 29.7917 29.7917C31.9306 27.6528 33 25.0556 33 22C33 18.9444 31.9306 16.3472 29.7917 14.2083C27.6528 12.0694 25.0556 11 22 11C18.9444 11 16.3472 12.0694 14.2083 14.2083C12.0694 16.3472 11 18.9444 11 22C11 25.0556 12.0694 27.6528 14.2083 29.7917C16.3472 31.9306 18.9444 33 22 33ZM22 29.3333C21.1139 29.3333 20.2583 29.1729 19.4333 28.8521C18.6083 28.5312 17.8597 28.0806 17.1875 27.5H26.8125C26.1403 28.0806 25.3917 28.5312 24.5667 28.8521C23.7417 29.1729 22.8861 29.3333 22 29.3333ZM15.675 25.6667C15.4306 25.2389 15.2319 24.7958 15.0792 24.3375C14.9264 23.8792 14.8194 23.4056 14.7583 22.9167H29.2417C29.1806 23.4056 29.0736 23.8792 28.9208 24.3375C28.7681 24.7958 28.5694 25.2389 28.325 25.6667H15.675ZM14.7583 21.0833C14.8194 20.5944 14.9264 20.1208 15.0792 19.6625C15.2319 19.2042 15.4306 18.7611 15.675 18.3333H28.325C28.5694 18.7611 28.7681 19.2042 28.9208 19.6625C29.0736 20.1208 29.1806 20.5944 29.2417 21.0833H14.7583ZM17.1875 16.5C17.8597 15.9194 18.6083 15.4688 19.4333 15.1479C20.2583 14.8271 21.1139 14.6667 22 14.6667C22.8861 14.6667 23.7417 14.8271 24.5667 15.1479C25.3917 15.4688 26.1403 15.9194 26.8125 16.5H17.1875ZM9.16667 38.5C8.15833 38.5 7.29514 38.141 6.57708 37.4229C5.85903 36.7049 5.5 35.8417 5.5 34.8333V9.16667C5.5 8.15833 5.85903 7.29514 6.57708 6.57708C7.29514 5.85903 8.15833 5.5 9.16667 5.5H34.8333C35.8417 5.5 36.7049 5.85903 37.4229 6.57708C38.141 7.29514 38.5 8.15833 38.5 9.16667V34.8333C38.5 35.8417 38.141 36.7049 37.4229 37.4229C36.7049 38.141 35.8417 38.5 34.8333 38.5H9.16667ZM9.16667 34.8333H34.8333V9.16667H9.16667V34.8333Z" fill="#014BAC"/>
</svg>
