<svg width="154" height="154" viewBox="0 0 154 154" fill="none" xmlns="http://www.w3.org/2000/svg">
<g filter="url(#filter0_d_198_584)">
<path d="M77 96C94.1208 96 108 82.1208 108 65C108 47.8792 94.1208 34 77 34C59.8792 34 46 47.8792 46 65C46 82.1208 59.8792 96 77 96Z" fill="white"/>
</g>
<path d="M85.2472 58.6564L87.764 56.137C89.3371 56.9018 91.2247 56.6319 92.5281 55.3272C94.1461 53.7076 94.1461 51.0532 92.5281 49.4335C90.9101 47.8139 88.2584 47.8139 86.6404 49.4335C85.382 50.6933 85.1124 52.6278 85.8315 54.1575L83.2697 56.6769C84.0337 57.2618 84.6629 57.8916 85.2472 58.6564ZM88.4831 51.3231C89.0674 50.7382 90.0112 50.7382 90.5955 51.3231C91.1798 51.908 91.1798 52.8528 90.5955 53.4376C90.0112 54.0225 89.0674 54.0225 88.4831 53.4376C87.8989 52.8528 87.8989 51.908 88.4831 51.3231ZM76.9775 54.5624C77.4719 54.5624 77.9213 54.6074 78.3708 54.6524V51.0982C79.9888 50.5133 81.1124 48.9836 81.1124 47.184C81.1124 44.8896 79.2247 43 76.9326 43C74.6404 43 72.7528 44.8896 72.7528 47.184C72.7528 49.0286 73.9213 50.5583 75.5843 51.1431V54.6524C76.0787 54.6074 76.5281 54.5624 76.9775 54.5624ZM75.4494 47.184C75.4494 46.3292 76.1236 45.6544 76.9775 45.6544C77.8315 45.6544 78.5056 46.3292 78.5056 47.184C78.5056 48.0389 77.8315 48.7137 76.9775 48.7137C76.1236 48.6687 75.4494 47.9939 75.4494 47.184ZM90.8652 66.3497C91.4494 67.9693 92.9775 69.184 94.8202 69.184C97.1124 69.184 99 67.2945 99 65C99 62.7055 97.1124 60.816 94.8202 60.816C93.0225 60.816 91.4944 61.9857 90.9101 63.5603H87.3146C87.3596 64.0102 87.4045 64.5051 87.4045 64.955C87.4045 65.4049 87.3596 65.8548 87.3146 66.3047H90.8652V66.3497ZM94.7753 63.4703C95.6292 63.4703 96.3034 64.1452 96.3034 65C96.3034 65.8548 95.6292 66.5297 94.7753 66.5297C93.9213 66.5297 93.2472 65.8548 93.2472 65C93.2921 64.1452 93.9663 63.4703 94.7753 63.4703ZM70.6854 56.6769L68.1685 54.1575C68.8876 52.6278 68.618 50.6933 67.3596 49.4335C65.7416 47.8139 63.0899 47.8139 61.4719 49.4335C59.8539 51.0532 59.8539 53.7076 61.4719 55.3272C62.7753 56.6319 64.7079 56.9018 66.236 56.137L68.7528 58.6564C69.2921 57.8916 69.9213 57.2618 70.6854 56.6769ZM65.4719 53.4826C64.8876 54.0675 63.9438 54.0675 63.3596 53.4826C62.7753 52.8977 62.7753 51.953 63.3596 51.3681C63.9438 50.7832 64.8876 50.7832 65.4719 51.3681C66.0562 51.908 66.0562 52.8528 65.4719 53.4826ZM86.6404 80.5665C88.2584 82.1861 90.9101 82.1861 92.5281 80.5665C94.1461 78.9468 94.1461 76.2924 92.5281 74.6728C91.2697 73.4131 89.3371 73.1431 87.809 73.863L85.2921 71.2986C84.7079 72.0184 84.0787 72.6933 83.3146 73.2781L85.8315 75.7975C85.0674 77.3272 85.3371 79.2618 86.6404 80.5665ZM88.4831 76.5174C89.0674 75.9325 90.0112 75.9325 90.5955 76.5174C91.1798 77.1022 91.1798 78.047 90.5955 78.6319C90.0112 79.2168 89.0674 79.2168 88.4831 78.6319C87.8989 78.092 87.8989 77.1472 88.4831 76.5174ZM59.1798 69.184C61.0225 69.184 62.5506 68.0143 63.1348 66.3497H66.6404C66.5955 65.8998 66.5506 65.4499 66.5506 65C66.5506 64.5051 66.5955 64.0552 66.6404 63.6053H63.0899C62.5056 61.9857 60.9775 60.8609 59.1798 60.8609C56.8876 60.8609 55 62.7505 55 65.045C55 67.2945 56.8427 69.184 59.1798 69.184ZM59.1798 63.4703C60.0337 63.4703 60.7079 64.1452 60.7079 65C60.7079 65.8548 60.0337 66.5297 59.1798 66.5297C58.3258 66.5297 57.6517 65.8548 57.6517 65C57.6517 64.1452 58.3258 63.4703 59.1798 63.4703ZM78.3708 78.9018V75.3476C77.9213 75.3926 77.427 75.4376 76.9775 75.4376C76.5281 75.4376 76.0787 75.3926 75.6292 75.3476V78.8569C74.0112 79.4417 72.7978 80.9714 72.7978 82.8159C72.7978 85.1104 74.6854 87 76.9775 87C79.2697 87 81.1573 85.1104 81.1573 82.8159C81.1573 81.0164 79.9888 79.4867 78.3708 78.9018ZM76.9775 84.3456C76.1236 84.3456 75.4494 83.6708 75.4494 82.8159C75.4494 81.9611 76.1236 81.2863 76.9775 81.2863C77.8315 81.2863 78.5056 81.9611 78.5056 82.8159C78.5056 83.6708 77.8315 84.3456 76.9775 84.3456ZM68.6629 71.2986L66.1461 73.818C64.618 73.0982 62.6854 73.3681 61.427 74.6278C59.809 76.2474 59.809 78.9018 61.427 80.5215C63.0449 82.1411 65.6966 82.1411 67.3146 80.5215C68.618 79.2168 68.8876 77.2822 68.1236 75.7526L70.6405 73.2331C69.8764 72.6933 69.2472 72.0634 68.6629 71.2986ZM65.4719 78.6769C64.8876 79.2618 63.9438 79.2618 63.3596 78.6769C62.7753 78.092 62.7753 77.1472 63.3596 76.5624C63.9438 75.9775 64.8876 75.9775 65.4719 76.5624C66.0562 77.1472 66.0562 78.092 65.4719 78.6769ZM79.3146 61.8957L80.7528 63.3354L77.427 66.6196L75.9888 68.0593L74.5506 66.6196L73.1573 65.2249L74.5955 63.7853L75.9888 65.18L79.3146 61.8957ZM76.9775 56.7219C72.3933 56.7219 68.7079 60.456 68.7079 65C68.7079 69.589 72.4382 73.2781 76.9775 73.2781C81.5169 73.2781 85.2472 69.589 85.2472 65C85.2472 60.411 81.5618 56.7219 76.9775 56.7219ZM76.9775 70.7587C73.7865 70.7587 71.2247 68.1493 71.2247 65C71.2247 61.8057 73.8315 59.2413 76.9775 59.2413C80.1236 59.2413 82.7303 61.8057 82.7303 65C82.7303 68.1943 80.1685 70.7587 76.9775 70.7587Z" fill="#014BAC"/>
<defs>
<filter id="filter0_d_198_584" x="0" y="0" width="154" height="154" filterUnits="userSpaceOnUse" color-interpolation-filters="sRGB">
<feFlood flood-opacity="0" result="BackgroundImageFix"/>
<feColorMatrix in="SourceAlpha" type="matrix" values="0 0 0 0 0 0 0 0 0 0 0 0 0 0 0 0 0 0 127 0" result="hardAlpha"/>
<feOffset dy="12"/>
<feGaussianBlur stdDeviation="23"/>
<feComposite in2="hardAlpha" operator="out"/>
<feColorMatrix type="matrix" values="0 0 0 0 0.00392157 0 0 0 0 0.294118 0 0 0 0 0.67451 0 0 0 0.19 0"/>
<feBlend mode="normal" in2="BackgroundImageFix" result="effect1_dropShadow_198_584"/>
<feBlend mode="normal" in="SourceGraphic" in2="effect1_dropShadow_198_584" result="shape"/>
</filter>
</defs>
</svg>
