<svg width="44" height="44" viewBox="0 0 44 44" fill="none" xmlns="http://www.w3.org/2000/svg">
<path d="M30.2472 15.6564L32.764 13.137C34.3371 13.9018 36.2247 13.6319 37.5281 12.3272C39.1461 10.7076 39.1461 8.05317 37.5281 6.43354C35.9101 4.81391 33.2584 4.81391 31.6404 6.43354C30.382 7.69325 30.1124 9.62781 30.8315 11.1575L28.2697 13.6769C29.0337 14.2618 29.6629 14.8916 30.2472 15.6564ZM33.4831 8.32311C34.0674 7.73824 35.0112 7.73824 35.5955 8.32311C36.1798 8.90798 36.1798 9.85276 35.5955 10.4376C35.0112 11.0225 34.0674 11.0225 33.4831 10.4376C32.8989 9.85276 32.8989 8.90798 33.4831 8.32311ZM21.9775 11.5624C22.4719 11.5624 22.9213 11.6074 23.3708 11.6524V8.09816C24.9888 7.51329 26.1124 5.98364 26.1124 4.18405C26.1124 1.88957 24.2247 0 21.9326 0C19.6404 0 17.7528 1.88957 17.7528 4.18405C17.7528 6.02863 18.9213 7.55828 20.5843 8.14315V11.6524C21.0787 11.6074 21.5281 11.5624 21.9775 11.5624ZM20.4494 4.18405C20.4494 3.32924 21.1236 2.6544 21.9775 2.6544C22.8315 2.6544 23.5056 3.32924 23.5056 4.18405C23.5056 5.03885 22.8315 5.7137 21.9775 5.7137C21.1236 5.66871 20.4494 4.99386 20.4494 4.18405ZM35.8652 23.3497C36.4494 24.9693 37.9775 26.184 39.8202 26.184C42.1124 26.184 44 24.2945 44 22C44 19.7055 42.1124 17.816 39.8202 17.816C38.0225 17.816 36.4944 18.9857 35.9101 20.5603H32.3146C32.3596 21.0102 32.4045 21.5051 32.4045 21.955C32.4045 22.4049 32.3596 22.8548 32.3146 23.3047H35.8652V23.3497ZM39.7753 20.4703C40.6292 20.4703 41.3034 21.1452 41.3034 22C41.3034 22.8548 40.6292 23.5297 39.7753 23.5297C38.9213 23.5297 38.2472 22.8548 38.2472 22C38.2921 21.1452 38.9663 20.4703 39.7753 20.4703ZM15.6854 13.6769L13.1685 11.1575C13.8876 9.62781 13.618 7.69325 12.3596 6.43354C10.7416 4.81391 8.08989 4.81391 6.47191 6.43354C4.85393 8.05317 4.85393 10.7076 6.47191 12.3272C7.77528 13.6319 9.70786 13.9018 11.236 13.137L13.7528 15.6564C14.2921 14.8916 14.9213 14.2618 15.6854 13.6769ZM10.4719 10.4826C9.88764 11.0675 8.94382 11.0675 8.35955 10.4826C7.77528 9.89775 7.77528 8.95296 8.35955 8.3681C8.94382 7.78323 9.88764 7.78323 10.4719 8.3681C11.0562 8.90798 11.0562 9.85276 10.4719 10.4826ZM31.6404 37.5665C33.2584 39.1861 35.9101 39.1861 37.5281 37.5665C39.1461 35.9468 39.1461 33.2924 37.5281 31.6728C36.2697 30.4131 34.3371 30.1431 32.809 30.863L30.2921 28.2986C29.7079 29.0184 29.0787 29.6933 28.3146 30.2781L30.8315 32.7975C30.0674 34.3272 30.3371 36.2618 31.6404 37.5665ZM33.4831 33.5174C34.0674 32.9325 35.0112 32.9325 35.5955 33.5174C36.1798 34.1022 36.1798 35.047 35.5955 35.6319C35.0112 36.2168 34.0674 36.2168 33.4831 35.6319C32.8989 35.092 32.8989 34.1472 33.4831 33.5174ZM4.17977 26.184C6.02247 26.184 7.55056 25.0143 8.13483 23.3497H11.6404C11.5955 22.8998 11.5506 22.4499 11.5506 22C11.5506 21.5051 11.5955 21.0552 11.6404 20.6053H8.08989C7.50562 18.9857 5.97753 17.8609 4.17977 17.8609C1.88764 17.8609 0 19.7505 0 22.045C0 24.2945 1.8427 26.184 4.17977 26.184ZM4.17977 20.4703C5.03371 20.4703 5.70786 21.1452 5.70786 22C5.70786 22.8548 5.03371 23.5297 4.17977 23.5297C3.32584 23.5297 2.65169 22.8548 2.65169 22C2.65169 21.1452 3.32584 20.4703 4.17977 20.4703ZM23.3708 35.9018V32.3476C22.9213 32.3926 22.427 32.4376 21.9775 32.4376C21.5281 32.4376 21.0787 32.3926 20.6292 32.3476V35.8569C19.0112 36.4417 17.7978 37.9714 17.7978 39.8159C17.7978 42.1104 19.6854 44 21.9775 44C24.2697 44 26.1573 42.1104 26.1573 39.8159C26.1573 38.0164 24.9888 36.4867 23.3708 35.9018ZM21.9775 41.3456C21.1236 41.3456 20.4494 40.6708 20.4494 39.8159C20.4494 38.9611 21.1236 38.2863 21.9775 38.2863C22.8315 38.2863 23.5056 38.9611 23.5056 39.8159C23.5056 40.6708 22.8315 41.3456 21.9775 41.3456ZM13.6629 28.2986L11.1461 30.818C9.61798 30.0982 7.68539 30.3681 6.42697 31.6278C4.80899 33.2474 4.80899 35.9018 6.42697 37.5215C8.04494 39.1411 10.6966 39.1411 12.3146 37.5215C13.618 36.2168 13.8876 34.2822 13.1236 32.7526L15.6405 30.2331C14.8764 29.6933 14.2472 29.0634 13.6629 28.2986ZM10.4719 35.6769C9.88764 36.2618 8.94382 36.2618 8.35955 35.6769C7.77528 35.092 7.77528 34.1472 8.35955 33.5624C8.94382 32.9775 9.88764 32.9775 10.4719 33.5624C11.0562 34.1472 11.0562 35.092 10.4719 35.6769ZM24.3146 18.8957L25.7528 20.3354L22.427 23.6196L20.9888 25.0593L19.5506 23.6196L18.1573 22.2249L19.5955 20.7853L20.9888 22.18L24.3146 18.8957ZM21.9775 13.7219C17.3933 13.7219 13.7079 17.456 13.7079 22C13.7079 26.589 17.4382 30.2781 21.9775 30.2781C26.5169 30.2781 30.2472 26.589 30.2472 22C30.2472 17.411 26.5618 13.7219 21.9775 13.7219ZM21.9775 27.7587C18.7865 27.7587 16.2247 25.1493 16.2247 22C16.2247 18.8057 18.8315 16.2413 21.9775 16.2413C25.1236 16.2413 27.7303 18.8057 27.7303 22C27.7303 25.1943 25.1685 27.7587 21.9775 27.7587Z" fill="#014BAC"/>
</svg>
