<svg width="44" height="44" viewBox="0 0 44 44" fill="none" xmlns="http://www.w3.org/2000/svg">
<path d="M17.0502 19.7542C17.0502 20.3348 17.1495 20.9001 17.3481 21.4501C17.5467 22.0001 17.8293 22.5042 18.196 22.9626C18.2571 22.5959 18.3793 22.2369 18.5627 21.8855C18.746 21.5341 18.9752 21.2362 19.2502 20.9917L22.0002 18.3334L24.7043 21.0376C24.9793 21.282 25.2085 21.5723 25.3918 21.9084C25.5752 22.2445 25.6974 22.5959 25.7585 22.9626C26.0946 22.5042 26.3925 22.0154 26.6522 21.4959C26.912 20.9765 27.0418 20.4265 27.0418 19.8459C27.0418 19.2654 26.9502 18.7077 26.7668 18.173C26.5835 17.6383 26.3085 17.1417 25.9418 16.6834C25.6057 16.8362 25.262 16.9584 24.9106 17.0501C24.5592 17.1417 24.2002 17.1876 23.8335 17.1876C22.9168 17.1876 22.0765 16.9279 21.3127 16.4084C20.5488 15.889 19.9682 15.2015 19.571 14.3459C19.2043 14.7126 18.8682 15.1022 18.5627 15.5147C18.2571 15.9272 17.9897 16.3626 17.7606 16.8209C17.5314 17.2792 17.3557 17.7529 17.2335 18.2417C17.1113 18.7306 17.0502 19.2348 17.0502 19.7542ZM22.0002 22.1834L21.221 22.9626C21.0988 23.0848 21.0147 23.207 20.9689 23.3292C20.9231 23.4515 20.9002 23.589 20.9002 23.7417C20.9002 24.0473 21.0071 24.2917 21.221 24.4751C21.4349 24.6584 21.6946 24.7501 22.0002 24.7501C22.3057 24.7501 22.5654 24.6584 22.7793 24.4751C22.9932 24.2917 23.1002 24.0473 23.1002 23.7417C23.1002 23.589 23.0772 23.4515 23.0314 23.3292C22.9856 23.207 22.9015 23.0848 22.7793 22.9626L22.0002 22.1834ZM22.0002 9.16675V12.6501C22.0002 13.1695 22.1835 13.6049 22.5502 13.9563C22.9168 14.3077 23.3599 14.4834 23.8793 14.4834C24.2154 14.4834 24.521 14.3841 24.796 14.1855C25.071 13.9869 25.3154 13.7501 25.5293 13.4751L25.8502 13.0167C27.1029 13.7195 28.0731 14.6744 28.7606 15.8813C29.4481 17.0883 29.7918 18.4098 29.7918 19.8459C29.7918 21.9848 29.0279 23.7952 27.5002 25.2772C25.9724 26.7591 24.139 27.5001 22.0002 27.5001C19.8613 27.5001 18.0432 26.7515 16.546 25.2542C15.0488 23.757 14.3002 21.939 14.3002 19.8001C14.3002 17.4473 15.0488 15.3542 16.546 13.5209C18.0432 11.6876 19.8613 10.2362 22.0002 9.16675ZM11.0002 40.3334C9.99183 40.3334 9.12863 39.9744 8.41058 39.2563C7.69252 38.5383 7.3335 37.6751 7.3335 36.6667V11.0001C7.3335 8.98341 8.05155 7.25703 9.48766 5.82091C10.9238 4.3848 12.6502 3.66675 14.6668 3.66675H29.3335C31.3502 3.66675 33.0765 4.3848 34.5127 5.82091C35.9488 7.25703 36.6668 8.98341 36.6668 11.0001V36.6667C36.6668 37.6751 36.3078 38.5383 35.5897 39.2563C34.8717 39.9744 34.0085 40.3334 33.0002 40.3334H11.0002ZM11.0002 33.0001V36.6667H33.0002V33.0001C32.0835 33.0001 31.3502 33.3056 30.8002 33.9167C30.2502 34.5279 29.1502 34.8334 27.5002 34.8334C25.8502 34.8334 24.7731 34.5279 24.2689 33.9167C23.7647 33.3056 23.0085 33.0001 22.0002 33.0001C20.9918 33.0001 20.2356 33.3056 19.7314 33.9167C19.2272 34.5279 18.1502 34.8334 16.5002 34.8334C14.8502 34.8334 13.7731 34.5279 13.2689 33.9167C12.7647 33.3056 12.0085 33.0001 11.0002 33.0001ZM16.5002 31.1667C17.5085 31.1667 18.2647 30.8612 18.7689 30.2501C19.2731 29.639 20.3502 29.3334 22.0002 29.3334C23.6502 29.3334 24.7502 29.639 25.3002 30.2501C25.8502 30.8612 26.5835 31.1667 27.5002 31.1667C28.4168 31.1667 29.1502 30.8612 29.7002 30.2501C30.2502 29.639 31.3502 29.3334 33.0002 29.3334V11.0001C33.0002 9.99175 32.6411 9.12855 31.9231 8.4105C31.205 7.69244 30.3418 7.33341 29.3335 7.33341H14.6668C13.6585 7.33341 12.7953 7.69244 12.0772 8.4105C11.3592 9.12855 11.0002 9.99175 11.0002 11.0001V29.3334C12.6502 29.3334 13.7272 29.639 14.2314 30.2501C14.7356 30.8612 15.4918 31.1667 16.5002 31.1667Z" fill="#014BAC"/>
</svg>
