<svg width="34" height="34" viewBox="0 0 34 34" fill="none" xmlns="http://www.w3.org/2000/svg">
<path d="M17 28C13.9444 28 11.3472 26.9306 9.20833 24.7917C7.06944 22.6528 6 20.0556 6 17C6 13.9444 7.06944 11.3472 9.20833 9.20833C11.3472 7.06944 13.9444 6 17 6C20.0556 6 22.6528 7.06944 24.7917 9.20833C26.9306 11.3472 28 13.9444 28 17C28 20.0556 26.9306 22.6528 24.7917 24.7917C22.6528 26.9306 20.0556 28 17 28ZM15.625 24.1958V20.3L12.875 23.05C13.3028 23.325 13.7382 23.5618 14.1813 23.7604C14.6243 23.959 15.1056 24.1042 15.625 24.1958ZM18.375 24.1958C18.8639 24.1042 19.3375 23.959 19.7958 23.7604C20.2542 23.5618 20.6972 23.325 21.125 23.05L18.375 20.3V24.1958ZM23.05 21.125C23.325 20.6972 23.5618 20.2542 23.7604 19.7958C23.959 19.3375 24.1042 18.8639 24.1958 18.375H20.3L23.05 21.125ZM20.3 15.625H24.1958C24.1042 15.1361 23.959 14.6625 23.7604 14.2042C23.5618 13.7458 23.325 13.3028 23.05 12.875L20.3 15.625ZM18.375 13.7L21.125 10.95C20.6972 10.675 20.2618 10.4382 19.8188 10.2396C19.3757 10.041 18.8944 9.89583 18.375 9.80417V13.7ZM17 18.8333C17.5194 18.8333 17.9549 18.6576 18.3062 18.3062C18.6576 17.9549 18.8333 17.5194 18.8333 17C18.8333 16.4806 18.6576 16.0451 18.3062 15.6938C17.9549 15.3424 17.5194 15.1667 17 15.1667C16.4806 15.1667 16.0451 15.3424 15.6938 15.6938C15.3424 16.0451 15.1667 16.4806 15.1667 17C15.1667 17.5194 15.3424 17.9549 15.6938 18.3062C16.0451 18.6576 16.4806 18.8333 17 18.8333ZM15.625 13.7V9.80417C15.1361 9.89583 14.6625 10.041 14.2042 10.2396C13.7458 10.4382 13.3028 10.675 12.875 10.95L15.625 13.7ZM9.80417 15.625H13.7L10.95 12.875C10.675 13.3028 10.4382 13.7458 10.2396 14.2042C10.041 14.6625 9.89583 15.1361 9.80417 15.625ZM10.95 21.125L13.7 18.375H9.80417C9.89583 18.8639 10.041 19.3375 10.2396 19.7958C10.4382 20.2542 10.675 20.6972 10.95 21.125ZM4.16667 33.5C3.15833 33.5 2.29514 33.141 1.57708 32.4229C0.859028 31.7049 0.5 30.8417 0.5 29.8333V4.16667C0.5 3.15833 0.859028 2.29514 1.57708 1.57708C2.29514 0.859028 3.15833 0.5 4.16667 0.5H29.8333C30.8417 0.5 31.7049 0.859028 32.4229 1.57708C33.141 2.29514 33.5 3.15833 33.5 4.16667V29.8333C33.5 30.8417 33.141 31.7049 32.4229 32.4229C31.7049 33.141 30.8417 33.5 29.8333 33.5H4.16667ZM4.16667 29.8333H29.8333V4.16667H4.16667V29.8333Z" fill="#014BAC"/>
</svg>
