<svg width="34" height="34" viewBox="0 0 34 34" fill="none" xmlns="http://www.w3.org/2000/svg">
<path d="M17 28C20.0556 28 22.6528 26.9306 24.7917 24.7917C26.9306 22.6528 28 20.0556 28 17C28 13.9444 26.9306 11.3472 24.7917 9.20833C22.6528 7.06944 20.0556 6 17 6C13.9444 6 11.3472 7.06944 9.20833 9.20833C7.06944 11.3472 6 13.9444 6 17C6 20.0556 7.06944 22.6528 9.20833 24.7917C11.3472 26.9306 13.9444 28 17 28ZM17 24.3333C16.1139 24.3333 15.2583 24.1729 14.4333 23.8521C13.6083 23.5312 12.8597 23.0806 12.1875 22.5H21.8125C21.1403 23.0806 20.3917 23.5312 19.5667 23.8521C18.7417 24.1729 17.8861 24.3333 17 24.3333ZM10.675 20.6667C10.4306 20.2389 10.2319 19.7958 10.0792 19.3375C9.92639 18.8792 9.81944 18.4056 9.75833 17.9167H24.2417C24.1806 18.4056 24.0736 18.8792 23.9208 19.3375C23.7681 19.7958 23.5694 20.2389 23.325 20.6667H10.675ZM9.75833 16.0833C9.81944 15.5944 9.92639 15.1208 10.0792 14.6625C10.2319 14.2042 10.4306 13.7611 10.675 13.3333H23.325C23.5694 13.7611 23.7681 14.2042 23.9208 14.6625C24.0736 15.1208 24.1806 15.5944 24.2417 16.0833H9.75833ZM12.1875 11.5C12.8597 10.9194 13.6083 10.4688 14.4333 10.1479C15.2583 9.82708 16.1139 9.66667 17 9.66667C17.8861 9.66667 18.7417 9.82708 19.5667 10.1479C20.3917 10.4688 21.1403 10.9194 21.8125 11.5H12.1875ZM4.16667 33.5C3.15833 33.5 2.29514 33.141 1.57708 32.4229C0.859028 31.7049 0.5 30.8417 0.5 29.8333V4.16667C0.5 3.15833 0.859028 2.29514 1.57708 1.57708C2.29514 0.859028 3.15833 0.5 4.16667 0.5H29.8333C30.8417 0.5 31.7049 0.859028 32.4229 1.57708C33.141 2.29514 33.5 3.15833 33.5 4.16667V29.8333C33.5 30.8417 33.141 31.7049 32.4229 32.4229C31.7049 33.141 30.8417 33.5 29.8333 33.5H4.16667ZM4.16667 29.8333H29.8333V4.16667H4.16667V29.8333Z" fill="#014BAC"/>
</svg>
