<svg width="44" height="44" viewBox="0 0 44 44" fill="none" xmlns="http://www.w3.org/2000/svg">
<path d="M22 33C18.9444 33 16.3472 31.9306 14.2083 29.7917C12.0694 27.6528 11 25.0556 11 22C11 18.9444 12.0694 16.3472 14.2083 14.2083C16.3472 12.0694 18.9444 11 22 11C25.0556 11 27.6528 12.0694 29.7917 14.2083C31.9306 16.3472 33 18.9444 33 22C33 25.0556 31.9306 27.6528 29.7917 29.7917C27.6528 31.9306 25.0556 33 22 33ZM20.625 29.1958V25.3L17.875 28.05C18.3028 28.325 18.7382 28.5618 19.1813 28.7604C19.6243 28.959 20.1056 29.1042 20.625 29.1958ZM23.375 29.1958C23.8639 29.1042 24.3375 28.959 24.7958 28.7604C25.2542 28.5618 25.6972 28.325 26.125 28.05L23.375 25.3V29.1958ZM28.05 26.125C28.325 25.6972 28.5618 25.2542 28.7604 24.7958C28.959 24.3375 29.1042 23.8639 29.1958 23.375H25.3L28.05 26.125ZM25.3 20.625H29.1958C29.1042 20.1361 28.959 19.6625 28.7604 19.2042C28.5618 18.7458 28.325 18.3028 28.05 17.875L25.3 20.625ZM23.375 18.7L26.125 15.95C25.6972 15.675 25.2618 15.4382 24.8188 15.2396C24.3757 15.041 23.8944 14.8958 23.375 14.8042V18.7ZM22 23.8333C22.5194 23.8333 22.9549 23.6576 23.3062 23.3062C23.6576 22.9549 23.8333 22.5194 23.8333 22C23.8333 21.4806 23.6576 21.0451 23.3062 20.6938C22.9549 20.3424 22.5194 20.1667 22 20.1667C21.4806 20.1667 21.0451 20.3424 20.6938 20.6938C20.3424 21.0451 20.1667 21.4806 20.1667 22C20.1667 22.5194 20.3424 22.9549 20.6938 23.3062C21.0451 23.6576 21.4806 23.8333 22 23.8333ZM20.625 18.7V14.8042C20.1361 14.8958 19.6625 15.041 19.2042 15.2396C18.7458 15.4382 18.3028 15.675 17.875 15.95L20.625 18.7ZM14.8042 20.625H18.7L15.95 17.875C15.675 18.3028 15.4382 18.7458 15.2396 19.2042C15.041 19.6625 14.8958 20.1361 14.8042 20.625ZM15.95 26.125L18.7 23.375H14.8042C14.8958 23.8639 15.041 24.3375 15.2396 24.7958C15.4382 25.2542 15.675 25.6972 15.95 26.125ZM9.16667 38.5C8.15833 38.5 7.29514 38.141 6.57708 37.4229C5.85903 36.7049 5.5 35.8417 5.5 34.8333V9.16667C5.5 8.15833 5.85903 7.29514 6.57708 6.57708C7.29514 5.85903 8.15833 5.5 9.16667 5.5H34.8333C35.8417 5.5 36.7049 5.85903 37.4229 6.57708C38.141 7.29514 38.5 8.15833 38.5 9.16667V34.8333C38.5 35.8417 38.141 36.7049 37.4229 37.4229C36.7049 38.141 35.8417 38.5 34.8333 38.5H9.16667ZM9.16667 34.8333H34.8333V9.16667H9.16667V34.8333Z" fill="#014BAC"/>
</svg>
