<svg width="34" height="36" viewBox="0 0 34 36" fill="none" xmlns="http://www.w3.org/2000/svg">
<path d="M29.414 1.64H11.4651V0.8C11.4651 0.36 11.1093 0 10.6744 0H5.96977C5.53488 0 5.17907 0.36 5.17907 0.8V1.64H4.58605C2.05581 1.64 0 3.68 0 6.24V31.36C0 33.92 2.05581 36 4.58605 36H29.414C31.9442 36 34 33.92 34 31.36V6.24C34 3.68 31.9442 1.64 29.414 1.64ZM17 33.92C8.73721 33.92 2.05581 27.16 2.05581 18.8C2.05581 10.44 8.73721 3.68 17 3.68C25.2628 3.68 31.9442 10.44 31.9442 18.8C31.9442 27.16 25.2628 33.92 17 33.92Z" fill="#014BAC"/>
<path d="M28.9018 15.2005C28.467 13.9205 27.8739 12.7205 27.1228 11.6805C26.846 11.2805 26.2925 11.1605 25.8577 11.4405L20.5995 14.6805C19.7693 14.0005 18.7809 13.5605 17.6344 13.4405L20.6786 8.32047C20.9949 7.76047 20.7181 7.04047 20.0856 6.88047C19.0972 6.64047 18.0693 6.48047 17.0414 6.48047C15.6972 6.48047 14.3925 6.68047 13.2065 7.08047C12.7321 7.24047 12.4553 7.72047 12.5739 8.24047L13.9972 14.3205C13.0879 14.9205 12.3763 15.7605 11.9018 16.7605L8.02743 12.2405C7.59254 11.7605 6.84138 11.8405 6.48557 12.3605C5.93208 13.2405 5.49719 14.1605 5.18091 15.2005C4.74603 16.4805 4.58789 17.8005 4.58789 19.0805C4.58789 19.6005 4.98324 20.0005 5.45766 20.0405L11.5856 20.5605C11.8623 21.6405 12.4553 22.6005 13.246 23.3205L7.79022 25.6805C7.19719 25.9205 7.03905 26.6805 7.4344 27.2005C8.06696 28.0005 8.81812 28.6805 9.68789 29.3205C10.7949 30.1205 11.9414 30.7205 13.167 31.1205C13.6414 31.2805 14.1553 31.0405 14.353 30.5605L16.7251 24.8005C16.8437 24.8005 16.9228 24.8005 17.0414 24.8005C18.0693 24.8005 19.0181 24.5205 19.8484 24.0405L20.3623 30.0005C20.4018 30.6405 21.0739 31.0405 21.667 30.8005C22.6158 30.4005 23.5251 29.9205 24.3553 29.2805C25.4623 28.4805 26.3716 27.5205 27.1228 26.4805C27.3995 26.0805 27.36 25.5205 26.9646 25.2005L22.2995 21.1605C22.5367 20.5205 22.6949 19.8405 22.6949 19.0805C22.6949 18.6805 22.6553 18.2805 22.5763 17.9205L28.3484 19.2405C28.9809 19.4005 29.5739 18.8805 29.4949 18.2005C29.4158 17.2405 29.2181 16.2005 28.9018 15.2005ZM17.0018 21.0805C15.7763 21.0805 14.7879 20.0805 14.7879 18.8405C14.7879 17.6005 15.7763 16.6005 17.0018 16.6005C18.2274 16.6005 19.2158 17.6005 19.2158 18.8405C19.2158 20.0405 18.2274 21.0805 17.0018 21.0805Z" fill="#014BAC"/>
</svg>
