<svg width="26" height="26" viewBox="0 0 26 26" fill="none" xmlns="http://www.w3.org/2000/svg">
<g id="Twitter">
<path id="Vector" d="M8.98094 21.6673C17.1574 21.6673 21.6289 14.9994 21.6289 9.21713C21.6289 9.02776 21.6249 8.83926 21.6163 8.65154C22.4863 8.03184 23.2372 7.26455 23.8337 6.38564C23.0371 6.73422 22.18 6.96882 21.2809 7.0746C22.1987 6.53289 22.9032 5.67589 23.2357 4.65435C22.363 5.1639 21.4084 5.52311 20.4129 5.71649C19.6017 4.86594 18.4469 4.33398 17.1681 4.33398C14.7133 4.33398 12.7226 6.2936 12.7226 8.70913C12.7226 9.05255 12.7616 9.38648 12.8379 9.70688C9.14335 9.52389 5.86728 7.78267 3.67476 5.13504C3.27987 5.80283 3.07216 6.56178 3.07285 7.33438C3.07285 8.85252 3.85761 10.1927 5.05104 10.9768C4.34511 10.9555 3.65468 10.7679 3.0378 10.4295C3.03714 10.4478 3.03714 10.4657 3.03714 10.4854C3.03714 12.6045 4.56939 14.3738 6.60342 14.7748C6.2214 14.8772 5.8272 14.929 5.43126 14.9287C5.14532 14.9287 4.86665 14.901 4.59582 14.8499C5.16175 16.5885 6.80278 17.8537 8.74842 17.889C7.22695 19.0629 5.31038 19.7621 3.22734 19.7621C2.87299 19.7624 2.51892 19.7421 2.16699 19.7015C4.13434 20.9427 6.47038 21.667 8.98116 21.667" fill="#1DA1F2"/>
</g>
</svg>
